<svg width="391" height="93" viewBox="0 0 391 93" fill="none" xmlns="http://www.w3.org/2000/svg">
<path d="M0.773 93L30.701 10.827L37.538 17.535L30.572 0.248995H72.884L80.237 33.918L69.788 50.301L110.681 0.248995H148.865L118.937 82.422L112.1 75.714L119.066 93H80.624L96.233 50.172L63.209 93H52.76L51.212 48.882L39.086 82.422L32.249 75.714L39.215 93H0.773ZM134.307 62.04H165.267L161.913 71.586L148.626 75.069H174.813L178.296 65.523L140.886 44.109L149.916 19.083L156.108 25.017L149.787 9.537H217.77L225.381 21.405L220.608 34.563L187.455 40.497L192.228 27.468H177.909L174.426 37.014L211.965 58.428L203.709 81.003L187.455 93H134.952L127.341 81.003L134.307 62.04ZM293.319 62.04L286.353 81.003L270.099 93H217.596L209.985 81.003L232.56 19.083L238.752 25.017L232.431 9.537H300.414L308.025 21.405L303.252 34.563L270.099 40.497L274.872 27.468H260.553L244.557 71.586L231.27 75.069H257.457L262.23 62.04H293.319ZM299.21 62.04H330.17L326.816 71.586L313.529 75.069H339.716L343.199 65.523L305.789 44.109L314.819 19.083L321.011 25.017L314.69 9.537H382.673L390.284 21.405L385.511 34.563L352.358 40.497L357.131 27.468H342.812L339.329 37.014L376.868 58.428L368.612 81.003L352.358 93H299.855L292.244 81.003L299.21 62.04Z" fill="url(#paint0_linear_1_2)"/>
<defs>
<linearGradient id="paint0_linear_1_2" x1="-42.7464" y1="-36.2305" x2="-0.436898" y2="147.288" gradientUnits="userSpaceOnUse">
<stop offset="0.57" stop-color="#C30E13"/>
<stop offset="0.86" stop-color="#51080A"/>
</linearGradient>
</defs>
</svg>
